<svg width="65" height="70" viewBox="0 0 65 70" fill="none" xmlns="http://www.w3.org/2000/svg">
<path d="M30.0003 41.3636V60.4545C30.0003 63.1061 29.2712 65.3598 27.8131 67.2159C26.355 69.072 24.5844 70 22.5014 70H7.50373C5.42072 70 3.65016 69.072 2.19205 67.2159C0.733937 65.3598 0.00488281 63.1061 0.00488281 60.4545V25.4545C0.00488281 22.0076 0.532145 18.718 1.58667 15.5859C2.6412 12.4538 4.06676 9.74432 5.86336 7.45739C7.65996 5.17045 9.78853 3.35582 12.2491 2.01349C14.7097 0.671165 17.2939 0 20.0018 0H22.5014C23.1784 0 23.7643 0.314867 24.259 0.944602C24.7537 1.57434 25.001 2.32008 25.001 3.18182V9.54545C25.001 10.4072 24.7537 11.1529 24.259 11.7827C23.7643 12.4124 23.1784 12.7273 22.5014 12.7273H20.0018C17.2418 12.7273 14.8854 13.9702 12.9326 16.456C10.9798 18.9418 10.0033 21.9413 10.0033 25.4545V27.0455C10.0033 28.3712 10.3679 29.4981 11.0969 30.4261C11.826 31.3542 12.7113 31.8182 13.7528 31.8182H22.5014C24.5844 31.8182 26.355 32.7462 27.8131 34.6023C29.2712 36.4583 30.0003 38.7121 30.0003 41.3636ZM64.9949 41.3636V60.4545C64.9949 63.1061 64.2658 65.3598 62.8077 67.2159C61.3496 69.072 59.5791 70 57.496 70H42.4983C40.4153 70 38.6448 69.072 37.1867 67.2159C35.7286 65.3598 34.9995 63.1061 34.9995 60.4545V25.4545C34.9995 22.0076 35.5268 18.718 36.5813 15.5859C37.6358 12.4538 39.0614 9.74432 40.858 7.45739C42.6546 5.17045 44.7832 3.35582 47.2437 2.01349C49.7043 0.671165 52.2885 0 54.9964 0H57.496C58.173 0 58.7589 0.314867 59.2536 0.944602C59.7483 1.57434 59.9957 2.32008 59.9957 3.18182V9.54545C59.9957 10.4072 59.7483 11.1529 59.2536 11.7827C58.7589 12.4124 58.173 12.7273 57.496 12.7273H54.9964C52.2364 12.7273 49.88 13.9702 47.9272 16.456C45.9744 18.9418 44.998 21.9413 44.998 25.4545V27.0455C44.998 28.3712 45.3625 29.4981 46.0915 30.4261C46.8206 31.3542 47.7059 31.8182 48.7474 31.8182H57.496C59.5791 31.8182 61.3496 32.7462 62.8077 34.6023C64.2658 36.4583 64.9949 38.7121 64.9949 41.3636Z" fill="#CFB167"/>
</svg>
