<svg width="45" height="45" viewBox="0 0 45 45" fill="none" xmlns="http://www.w3.org/2000/svg">
<path d="M16.875 8.4375C16.875 10.6753 15.9861 12.8214 14.4037 14.4037C12.8214 15.9861 10.6753 16.875 8.4375 16.875C6.19974 16.875 4.05362 15.9861 2.47129 14.4037C0.888948 12.8214 0 10.6753 0 8.4375C0 6.19974 0.888948 4.05362 2.47129 2.47129C4.05362 0.888948 6.19974 0 8.4375 0C10.6753 0 12.8214 0.888948 14.4037 2.47129C15.9861 4.05362 16.875 6.19974 16.875 8.4375V8.4375ZM2.8125 8.4375C2.8125 9.92934 3.40513 11.3601 4.46002 12.415C5.51492 13.4699 6.94566 14.0625 8.4375 14.0625C9.92934 14.0625 11.3601 13.4699 12.415 12.415C13.4699 11.3601 14.0625 9.92934 14.0625 8.4375C14.0625 6.94566 13.4699 5.51492 12.415 4.46002C11.3601 3.40513 9.92934 2.8125 8.4375 2.8125C6.94566 2.8125 5.51492 3.40513 4.46002 4.46002C3.40513 5.51492 2.8125 6.94566 2.8125 8.4375V8.4375Z" fill="#D32E2A"/>
<path d="M25.3125 16.875H26.7188C28.0831 16.8748 29.401 17.3705 30.427 18.2698C31.453 19.1691 32.1172 20.4106 32.2959 21.7631L41.0428 17.8762C41.471 17.6855 41.94 17.6047 42.4073 17.6414C42.8745 17.678 43.3253 17.8308 43.7185 18.086C44.1116 18.3411 44.4348 18.6905 44.6586 19.1023C44.8825 19.5141 44.9998 19.9753 45 20.4441V41.4309C44.9996 41.8993 44.8822 42.3601 44.6586 42.7716C44.4349 43.1831 44.112 43.5322 43.7192 43.7873C43.3264 44.0424 42.8761 44.1953 42.4092 44.2322C41.9424 44.2692 41.4736 44.1889 41.0456 43.9988L32.2959 40.1119C32.1172 41.4644 31.453 42.7059 30.427 43.6052C29.401 44.5045 28.0831 45.0002 26.7188 45H5.625C4.13316 45 2.70242 44.4074 1.64752 43.3525C0.592632 42.2976 0 40.8668 0 39.375V22.5C0 21.0082 0.592632 19.5774 1.64752 18.5225C2.70242 17.4676 4.13316 16.875 5.625 16.875H25.3125ZM42.1875 41.4281V20.4469L32.3438 24.8203V37.0547L42.1875 41.4309V41.4281ZM2.8125 22.5V39.375C2.8125 40.1209 3.10882 40.8363 3.63626 41.3637C4.16371 41.8912 4.87908 42.1875 5.625 42.1875H26.7188C27.4647 42.1875 28.18 41.8912 28.7075 41.3637C29.2349 40.8363 29.5312 40.1209 29.5312 39.375V22.5C29.5312 21.7541 29.2349 21.0387 28.7075 20.5113C28.18 19.9838 27.4647 19.6875 26.7188 19.6875H5.625C4.87908 19.6875 4.16371 19.9838 3.63626 20.5113C3.10882 21.0387 2.8125 21.7541 2.8125 22.5V22.5Z" fill="#D32E2A"/>
<path d="M25.3125 16.875C27.5503 16.875 29.6964 15.9861 31.2787 14.4037C32.8611 12.8214 33.75 10.6753 33.75 8.4375C33.75 6.19974 32.8611 4.05362 31.2787 2.47129C29.6964 0.888948 27.5503 0 25.3125 0C23.0747 0 20.9286 0.888948 19.3463 2.47129C17.7639 4.05362 16.875 6.19974 16.875 8.4375C16.875 10.6753 17.7639 12.8214 19.3463 14.4037C20.9286 15.9861 23.0747 16.875 25.3125 16.875V16.875ZM19.6875 8.4375C19.6875 6.94566 20.2801 5.51492 21.335 4.46002C22.3899 3.40513 23.8207 2.8125 25.3125 2.8125C26.8043 2.8125 28.2351 3.40513 29.29 4.46002C30.3449 5.51492 30.9375 6.94566 30.9375 8.4375C30.9375 9.92934 30.3449 11.3601 29.29 12.415C28.2351 13.4699 26.8043 14.0625 25.3125 14.0625C23.8207 14.0625 22.3899 13.4699 21.335 12.415C20.2801 11.3601 19.6875 9.92934 19.6875 8.4375V8.4375Z" fill="#D32E2A"/>
</svg>
