<svg width="45" height="45" viewBox="0 0 45 45" fill="none" xmlns="http://www.w3.org/2000/svg">
<path d="M22.5 41.25C32.8556 41.25 41.25 32.8556 41.25 22.5C41.25 12.1444 32.8556 3.75 22.5 3.75C12.1444 3.75 3.75 12.1444 3.75 22.5C3.75 32.8556 12.1444 41.25 22.5 41.25Z" stroke="#D32E2A" stroke-width="3.75" stroke-linejoin="round"/>
<path d="M22.5 16.875C23.2459 16.875 23.9613 16.5787 24.4887 16.0512C25.0162 15.5238 25.3125 14.8084 25.3125 14.0625C25.3125 13.3166 25.0162 12.6012 24.4887 12.0738C23.9613 11.5463 23.2459 11.25 22.5 11.25C21.7541 11.25 21.0387 11.5463 20.5113 12.0738C19.9838 12.6012 19.6875 13.3166 19.6875 14.0625C19.6875 14.8084 19.9838 15.5238 20.5113 16.0512C21.0387 16.5787 21.7541 16.875 22.5 16.875ZM22.5 33.75C23.2459 33.75 23.9613 33.4537 24.4887 32.9262C25.0162 32.3988 25.3125 31.6834 25.3125 30.9375C25.3125 30.1916 25.0162 29.4762 24.4887 28.9488C23.9613 28.4213 23.2459 28.125 22.5 28.125C21.7541 28.125 21.0387 28.4213 20.5113 28.9488C19.9838 29.4762 19.6875 30.1916 19.6875 30.9375C19.6875 31.6834 19.9838 32.3988 20.5113 32.9262C21.0387 33.4537 21.7541 33.75 22.5 33.75ZM14.0625 25.3125C14.8084 25.3125 15.5238 25.0162 16.0512 24.4887C16.5787 23.9613 16.875 23.2459 16.875 22.5C16.875 21.7541 16.5787 21.0387 16.0512 20.5113C15.5238 19.9838 14.8084 19.6875 14.0625 19.6875C13.3166 19.6875 12.6012 19.9838 12.0738 20.5113C11.5463 21.0387 11.25 21.7541 11.25 22.5C11.25 23.2459 11.5463 23.9613 12.0738 24.4887C12.6012 25.0162 13.3166 25.3125 14.0625 25.3125V25.3125ZM30.9375 25.3125C31.6834 25.3125 32.3988 25.0162 32.9262 24.4887C33.4537 23.9613 33.75 23.2459 33.75 22.5C33.75 21.7541 33.4537 21.0387 32.9262 20.5113C32.3988 19.9838 31.6834 19.6875 30.9375 19.6875C30.1916 19.6875 29.4762 19.9838 28.9488 20.5113C28.4213 21.0387 28.125 21.7541 28.125 22.5C28.125 23.2459 28.4213 23.9613 28.9488 24.4887C29.4762 25.0162 30.1916 25.3125 30.9375 25.3125Z" stroke="#D32E2A" stroke-width="3.75" stroke-linejoin="round"/>
<path d="M22.5 41.25H41.25" stroke="#D32E2A" stroke-width="3.75" stroke-linecap="round"/>
</svg>
